<mxfile host="app.diagrams.net" modified="2022-10-13T01:42:53.451Z" agent="5.0 (Windows NT 10.0; Win64; x64) AppleWebKit/537.36 (KHTML, like Gecko) Chrome/106.0.0.0 Safari/537.36" etag="02FNhqLwtSsiH-AuWc9l" version="20.4.0" type="github">
  <diagram id="h9bAmnUel5tqnT0y4ZWO" name="Page-1">
    <mxGraphModel dx="1320" dy="516" grid="1" gridSize="10" guides="1" tooltips="1" connect="1" arrows="1" fold="1" page="1" pageScale="1" pageWidth="2336" pageHeight="1654" math="0" shadow="0">
      <root>
        <mxCell id="0" />
        <mxCell id="1" parent="0" />
        <mxCell id="KAJTuQCDLY8XCAWW465p-1" value="" style="rounded=1;whiteSpace=wrap;html=1;" vertex="1" parent="1">
          <mxGeometry x="540" y="50" width="810" height="400" as="geometry" />
        </mxCell>
        <mxCell id="KAJTuQCDLY8XCAWW465p-2" value="" style="rounded=0;whiteSpace=wrap;html=1;fillColor=#e51400;fontColor=#ffffff;strokeColor=#000000;strokeWidth=3;" vertex="1" parent="1">
          <mxGeometry x="620" y="160" width="40" height="180" as="geometry" />
        </mxCell>
        <mxCell id="KAJTuQCDLY8XCAWW465p-4" value="" style="endArrow=none;html=1;rounded=0;strokeWidth=2;" edge="1" parent="1">
          <mxGeometry width="50" height="50" relative="1" as="geometry">
            <mxPoint x="640" y="160" as="sourcePoint" />
            <mxPoint x="640" y="110" as="targetPoint" />
          </mxGeometry>
        </mxCell>
        <mxCell id="KAJTuQCDLY8XCAWW465p-5" value="" style="endArrow=none;html=1;rounded=0;strokeWidth=2;" edge="1" parent="1">
          <mxGeometry width="50" height="50" relative="1" as="geometry">
            <mxPoint x="639.5" y="390" as="sourcePoint" />
            <mxPoint x="639.5" y="340" as="targetPoint" />
          </mxGeometry>
        </mxCell>
        <mxCell id="KAJTuQCDLY8XCAWW465p-6" value="" style="rounded=0;whiteSpace=wrap;html=1;fillColor=#008a00;fontColor=#ffffff;strokeColor=#005700;strokeWidth=3;" vertex="1" parent="1">
          <mxGeometry x="800" y="220" width="40" height="50" as="geometry" />
        </mxCell>
        <mxCell id="KAJTuQCDLY8XCAWW465p-7" value="" style="endArrow=none;html=1;rounded=0;strokeWidth=2;" edge="1" parent="1" source="KAJTuQCDLY8XCAWW465p-6">
          <mxGeometry width="50" height="50" relative="1" as="geometry">
            <mxPoint x="820" y="160" as="sourcePoint" />
            <mxPoint x="820" y="110" as="targetPoint" />
          </mxGeometry>
        </mxCell>
        <mxCell id="KAJTuQCDLY8XCAWW465p-8" value="" style="endArrow=none;html=1;rounded=0;strokeWidth=2;entryX=0.5;entryY=1;entryDx=0;entryDy=0;" edge="1" parent="1" target="KAJTuQCDLY8XCAWW465p-6">
          <mxGeometry width="50" height="50" relative="1" as="geometry">
            <mxPoint x="819.5" y="390" as="sourcePoint" />
            <mxPoint x="819.5" y="340" as="targetPoint" />
          </mxGeometry>
        </mxCell>
      </root>
    </mxGraphModel>
  </diagram>
</mxfile>
